<svg xmlns="http://www.w3.org/2000/svg" xmlns:xlink="http://www.w3.org/1999/xlink" width="50" zoomAndPan="magnify" viewBox="0 0 37.5 37.499999" height="50" preserveAspectRatio="xMidYMid meet" version="1.0"><defs><clipPath id="e651c04940"><path d="M 0 4.878906 L 37 4.878906 L 37 32.261719 L 0 32.261719 Z M 0 4.878906 " clip-rule="nonzero"/></clipPath></defs><path fill="#83af95" d="M 18.503906 28.574219 C 25.949219 28.574219 30.769531 25.070312 30.769531 25.070312 C 30.769531 25.070312 29.453125 28.136719 25.511719 29.453125 L 26.824219 31.640625 C 33.621094 31.421875 36.464844 26.886719 36.464844 26.886719 C 36.464844 16.8125 32.035156 8.644531 32.035156 8.644531 C 27.605469 5.265625 23.394531 5.359375 23.394531 5.359375 L 22.882812 5.796875 C 28.113281 7.425781 30.332031 10.179688 30.332031 10.179688 C 27.132812 8.394531 23.320312 7.113281 18.503906 7.113281 C 13.683594 7.113281 9.875 8.394531 6.675781 10.179688 C 6.675781 10.179688 8.894531 7.425781 14.121094 5.796875 L 13.613281 5.359375 C 13.613281 5.359375 9.398438 5.265625 4.972656 8.644531 C 4.972656 8.644531 0.542969 16.8125 0.542969 26.886719 C 0.542969 26.886719 3.382812 31.421875 10.179688 31.640625 L 11.496094 29.453125 C 7.550781 28.136719 6.238281 25.070312 6.238281 25.070312 C 6.238281 25.070312 11.054688 28.574219 18.503906 28.574219 Z M 18.503906 28.574219 " fill-opacity="1" fill-rule="nonzero"/><path fill="#83af95" d="M 27.265625 20.691406 C 27.265625 21.15625 27.179688 21.601562 27.015625 22.03125 C 26.847656 22.460938 26.609375 22.839844 26.300781 23.167969 C 25.992188 23.496094 25.636719 23.75 25.234375 23.929688 C 24.832031 24.105469 24.414062 24.195312 23.980469 24.195312 C 23.542969 24.195312 23.125 24.105469 22.722656 23.929688 C 22.320312 23.75 21.964844 23.496094 21.65625 23.167969 C 21.347656 22.839844 21.109375 22.460938 20.945312 22.03125 C 20.777344 21.601562 20.695312 21.15625 20.695312 20.691406 C 20.695312 20.226562 20.777344 19.78125 20.945312 19.351562 C 21.109375 18.921875 21.347656 18.542969 21.65625 18.214844 C 21.964844 17.886719 22.320312 17.632812 22.722656 17.453125 C 23.125 17.277344 23.542969 17.1875 23.980469 17.1875 C 24.414062 17.1875 24.832031 17.277344 25.234375 17.453125 C 25.636719 17.632812 25.992188 17.886719 26.300781 18.214844 C 26.609375 18.542969 26.847656 18.921875 27.015625 19.351562 C 27.179688 19.78125 27.265625 20.226562 27.265625 20.691406 Z M 27.265625 20.691406 " fill-opacity="1" fill-rule="nonzero"/><path fill="#83af95" d="M 16.3125 20.691406 C 16.3125 21.15625 16.230469 21.601562 16.0625 22.03125 C 15.894531 22.460938 15.660156 22.839844 15.351562 23.167969 C 15.042969 23.496094 14.6875 23.75 14.285156 23.929688 C 13.882812 24.105469 13.464844 24.195312 13.027344 24.195312 C 12.59375 24.195312 12.171875 24.105469 11.769531 23.929688 C 11.367188 23.75 11.011719 23.496094 10.703125 23.167969 C 10.398438 22.839844 10.160156 22.460938 9.992188 22.03125 C 9.824219 21.601562 9.742188 21.15625 9.742188 20.691406 C 9.742188 20.226562 9.824219 19.78125 9.992188 19.351562 C 10.160156 18.921875 10.398438 18.542969 10.703125 18.214844 C 11.011719 17.886719 11.367188 17.632812 11.769531 17.453125 C 12.171875 17.277344 12.59375 17.1875 13.027344 17.1875 C 13.464844 17.1875 13.882812 17.277344 14.285156 17.453125 C 14.6875 17.632812 15.042969 17.886719 15.351562 18.214844 C 15.660156 18.542969 15.894531 18.921875 16.0625 19.351562 C 16.230469 19.78125 16.3125 20.226562 16.3125 20.691406 Z M 16.3125 20.691406 " fill-opacity="1" fill-rule="nonzero"/><g clip-path="url(#e651c04940)"><path fill="#fcfaff" d="M 26.824219 32.082031 C 26.671875 32.082031 26.53125 32 26.449219 31.867188 L 25.136719 29.679688 C 25.066406 29.5625 25.054688 29.425781 25.101562 29.300781 C 25.148438 29.175781 25.246094 29.078125 25.375 29.035156 C 27.285156 28.398438 28.546875 27.332031 29.324219 26.4375 C 27.273438 27.5 23.480469 29.015625 18.503906 29.015625 C 13.535156 29.015625 9.746094 27.503906 7.691406 26.441406 C 8.472656 27.335938 9.734375 28.402344 11.632812 29.035156 C 11.757812 29.078125 11.859375 29.175781 11.90625 29.300781 C 11.949219 29.425781 11.9375 29.5625 11.871094 29.679688 L 10.554688 31.867188 C 10.472656 32.003906 10.316406 32.089844 10.167969 32.082031 C 3.214844 31.855469 0.292969 27.3125 0.171875 27.121094 C 0.128906 27.050781 0.105469 26.96875 0.105469 26.886719 C 0.105469 16.816406 4.542969 8.519531 4.585938 8.4375 C 4.617188 8.382812 4.65625 8.335938 4.707031 8.296875 C 9.207031 4.863281 13.441406 4.917969 13.621094 4.921875 C 13.722656 4.925781 13.820312 4.960938 13.898438 5.027344 L 14.40625 5.464844 C 14.527344 5.570312 14.582031 5.730469 14.550781 5.886719 C 14.519531 6.042969 14.40625 6.167969 14.253906 6.214844 C 12.328125 6.816406 10.824219 7.570312 9.695312 8.273438 C 12.484375 7.199219 15.390625 6.675781 18.503906 6.675781 C 21.609375 6.675781 24.511719 7.199219 27.296875 8.269531 C 26.167969 7.5625 24.664062 6.8125 22.753906 6.214844 C 22.601562 6.167969 22.488281 6.042969 22.453125 5.886719 C 22.421875 5.730469 22.476562 5.570312 22.597656 5.464844 L 23.109375 5.027344 C 23.183594 4.960938 23.28125 4.925781 23.382812 4.921875 C 23.5625 4.917969 27.800781 4.863281 32.300781 8.296875 C 32.347656 8.335938 32.390625 8.382812 32.417969 8.4375 C 32.464844 8.519531 36.902344 16.816406 36.902344 26.886719 C 36.902344 26.96875 36.878906 27.050781 36.835938 27.121094 C 36.714844 27.3125 33.789062 31.855469 26.839844 32.082031 C 26.835938 32.082031 26.832031 32.082031 26.824219 32.082031 Z M 26.160156 29.683594 L 27.066406 31.195312 C 32.808594 30.910156 35.570312 27.390625 36.023438 26.75 C 35.988281 17.488281 32.144531 9.804688 31.691406 8.9375 C 28.75 6.71875 25.914062 6.066406 24.441406 5.875 C 28.71875 7.527344 30.585938 9.796875 30.671875 9.902344 C 30.800781 10.066406 30.800781 10.300781 30.664062 10.460938 C 30.527344 10.621094 30.300781 10.664062 30.117188 10.5625 C 26.484375 8.535156 22.683594 7.550781 18.503906 7.550781 C 14.320312 7.550781 10.523438 8.535156 6.890625 10.5625 C 6.707031 10.664062 6.476562 10.621094 6.339844 10.460938 C 6.207031 10.300781 6.203125 10.066406 6.335938 9.902344 C 6.417969 9.796875 8.285156 7.53125 12.554688 5.878906 C 11.082031 6.074219 8.238281 6.730469 5.3125 8.9375 C 4.863281 9.804688 1.019531 17.5 0.980469 26.753906 C 1.4375 27.390625 4.199219 30.910156 9.9375 31.195312 L 10.84375 29.683594 C 7.15625 28.242188 5.890625 25.371094 5.835938 25.246094 C 5.757812 25.0625 5.808594 24.851562 5.964844 24.730469 C 6.117188 24.605469 6.335938 24.601562 6.496094 24.71875 C 6.542969 24.75 11.300781 28.136719 18.503906 28.136719 C 25.707031 28.136719 30.464844 24.75 30.511719 24.71875 C 30.671875 24.601562 30.886719 24.605469 31.042969 24.730469 C 31.195312 24.851562 31.25 25.0625 31.171875 25.246094 C 31.117188 25.371094 29.847656 28.242188 26.160156 29.683594 Z M 26.160156 29.683594 " fill-opacity="1" fill-rule="nonzero"/></g><path fill="#fcfaff" d="M 23.980469 24.632812 C 21.925781 24.632812 20.253906 22.863281 20.253906 20.691406 C 20.253906 18.519531 21.925781 16.75 23.980469 16.75 C 26.03125 16.75 27.703125 18.519531 27.703125 20.691406 C 27.703125 22.863281 26.03125 24.632812 23.980469 24.632812 Z M 23.980469 17.625 C 22.410156 17.625 21.132812 19 21.132812 20.691406 C 21.132812 22.382812 22.410156 23.757812 23.980469 23.757812 C 25.546875 23.757812 26.824219 22.382812 26.824219 20.691406 C 26.824219 19 25.546875 17.625 23.980469 17.625 Z M 23.980469 17.625 " fill-opacity="1" fill-rule="nonzero"/><path fill="#fcfaff" d="M 13.027344 24.632812 C 10.976562 24.632812 9.304688 22.863281 9.304688 20.691406 C 9.304688 18.519531 10.976562 16.75 13.027344 16.75 C 15.082031 16.75 16.75 18.519531 16.75 20.691406 C 16.75 22.863281 15.082031 24.632812 13.027344 24.632812 Z M 13.027344 17.625 C 11.457031 17.625 10.179688 19 10.179688 20.691406 C 10.179688 22.382812 11.457031 23.757812 13.027344 23.757812 C 14.597656 23.757812 15.875 22.382812 15.875 20.691406 C 15.875 19 14.597656 17.625 13.027344 17.625 Z M 13.027344 17.625 " fill-opacity="1" fill-rule="nonzero"/><path fill="#fcfaff" d="M 29.234375 12.050781 C 29.199219 12.050781 29.164062 12.039062 29.128906 12.023438 C 29.046875 11.976562 28.964844 11.933594 28.882812 11.894531 L 28.695312 11.800781 C 28.589844 11.746094 28.546875 11.613281 28.601562 11.503906 C 28.660156 11.398438 28.792969 11.355469 28.898438 11.414062 L 29.078125 11.503906 C 29.164062 11.546875 29.253906 11.589844 29.339844 11.640625 C 29.445312 11.695312 29.484375 11.832031 29.425781 11.9375 C 29.386719 12.007812 29.3125 12.050781 29.234375 12.050781 Z M 29.234375 12.050781 " fill-opacity="1" fill-rule="nonzero"/><path fill="#fcfaff" d="M 27.921875 11.378906 C 27.890625 11.378906 27.859375 11.375 27.828125 11.359375 C 27.148438 11.039062 26.4375 10.753906 25.660156 10.484375 C 25.542969 10.445312 25.484375 10.320312 25.523438 10.207031 C 25.5625 10.089844 25.6875 10.03125 25.800781 10.070312 C 26.597656 10.34375 27.320312 10.636719 28.015625 10.964844 C 28.125 11.015625 28.171875 11.144531 28.121094 11.253906 C 28.082031 11.335938 28.003906 11.378906 27.921875 11.378906 Z M 27.921875 11.378906 " fill-opacity="1" fill-rule="nonzero"/><path fill="#fcfaff" d="M 7.769531 12.050781 C 7.695312 12.050781 7.617188 12.007812 7.578125 11.9375 C 7.519531 11.828125 7.558594 11.695312 7.664062 11.636719 C 11.0625 9.773438 14.609375 8.863281 18.503906 8.863281 C 20.738281 8.863281 22.835938 9.167969 24.917969 9.785156 C 25.035156 9.820312 25.097656 9.941406 25.066406 10.058594 C 25.03125 10.175781 24.910156 10.242188 24.792969 10.207031 C 22.75 9.597656 20.695312 9.300781 18.503906 9.300781 C 14.683594 9.300781 11.207031 10.191406 7.875 12.023438 C 7.84375 12.039062 7.808594 12.050781 7.769531 12.050781 Z M 7.769531 12.050781 " fill-opacity="1" fill-rule="nonzero"/></svg>