<svg xmlns="http://www.w3.org/2000/svg" xmlns:xlink="http://www.w3.org/1999/xlink" width="50" zoomAndPan="magnify" viewBox="0 0 37.5 37.499999" height="50" preserveAspectRatio="xMidYMid meet" version="1.0"><defs><clipPath id="b6cbbb5f07"><path d="M 0 0.0234375 L 37 0.0234375 L 37 37.007812 L 0 37.007812 Z M 0 0.0234375 " clip-rule="nonzero"/></clipPath></defs><g clip-path="url(#b6cbbb5f07)"><path fill="#fcfaff" d="M 30.164062 0.03125 L 6.792969 0.03125 C 3.039062 0.03125 -0.0117188 3.085938 -0.0117188 6.835938 L -0.0117188 30.207031 C -0.0117188 33.957031 3.039062 37.011719 6.792969 37.011719 L 30.164062 37.011719 C 33.914062 37.011719 36.964844 33.957031 36.964844 30.207031 L 36.964844 6.835938 C 36.964844 3.085938 33.914062 0.03125 30.164062 0.03125 Z M 35.128906 30.207031 C 35.128906 32.945312 32.902344 35.171875 30.164062 35.171875 L 6.792969 35.171875 C 4.054688 35.171875 1.828125 32.945312 1.828125 30.207031 L 1.828125 6.835938 C 1.828125 4.097656 4.054688 1.871094 6.792969 1.871094 L 30.164062 1.871094 C 32.902344 1.871094 35.128906 4.097656 35.128906 6.835938 Z M 35.128906 30.207031 " fill-opacity="1" fill-rule="nonzero"/></g><path fill="#fcfaff" d="M 26.867188 6.394531 C 25.148438 6.394531 23.75 7.792969 23.75 9.507812 C 23.75 9.730469 23.773438 9.949219 23.820312 10.15625 C 22.277344 9.167969 20.441406 8.589844 18.476562 8.589844 C 13 8.589844 8.546875 13.046875 8.546875 18.523438 C 8.546875 23.996094 13 28.453125 18.476562 28.453125 C 23.953125 28.453125 28.40625 23.996094 28.40625 18.523438 C 28.40625 16.300781 27.675781 14.246094 26.4375 12.589844 C 26.578125 12.609375 26.71875 12.625 26.867188 12.625 C 28.582031 12.625 29.980469 11.226562 29.980469 9.511719 C 29.980469 7.792969 28.582031 6.394531 26.867188 6.394531 Z M 18.476562 26.613281 C 14.015625 26.613281 10.386719 22.984375 10.386719 18.523438 C 10.386719 14.058594 14.015625 10.429688 18.476562 10.429688 C 22.9375 10.429688 26.570312 14.058594 26.570312 18.523438 C 26.570312 22.984375 22.9375 26.613281 18.476562 26.613281 Z M 26.867188 10.785156 C 26.164062 10.785156 25.589844 10.214844 25.589844 9.507812 C 25.589844 8.808594 26.164062 8.234375 26.867188 8.234375 C 27.570312 8.234375 28.140625 8.808594 28.140625 9.511719 C 28.140625 10.214844 27.570312 10.785156 26.867188 10.785156 Z M 26.867188 10.785156 " fill-opacity="1" fill-rule="nonzero"/></svg>