<svg xmlns="http://www.w3.org/2000/svg" xmlns:xlink="http://www.w3.org/1999/xlink" width="50" zoomAndPan="magnify" viewBox="0 0 37.5 37.499999" height="50" preserveAspectRatio="xMidYMid meet" version="1.0"><defs><clipPath id="fdd22ed653"><path d="M 0 0 L 37.007812 0 L 37.007812 37.007812 L 0 37.007812 Z M 0 0 " clip-rule="nonzero"/></clipPath></defs><path stroke-linecap="butt" transform="matrix(1.682117, 0, 0, 1.682117, -1.682117, -1.682117)" fill="none" stroke-linejoin="round" d="M 18.00099 6.499023 C 17.724646 6.499023 17.49939 6.276089 17.49939 5.999745 C 17.49939 5.7234 17.724646 5.500467 18.00099 5.500467 " stroke="#000000" stroke-width="1" stroke-opacity="1" stroke-miterlimit="4"/><path stroke-linecap="butt" transform="matrix(1.682117, 0, 0, 1.682117, -1.682117, -1.682117)" fill="none" stroke-linejoin="round" d="M 18.00099 6.499023 C 18.275013 6.499023 18.500268 6.276089 18.500268 5.999745 C 18.500268 5.7234 18.275013 5.500467 18.00099 5.500467 " stroke="#000000" stroke-width="1" stroke-opacity="1" stroke-miterlimit="4"/><path stroke-linecap="butt" transform="matrix(1.682117, 0, 0, 1.682117, -1.682117, -1.682117)" fill="none" stroke-linejoin="round" d="M 17.000112 12.000368 C 17.000112 12.327801 16.967601 12.652912 16.904901 12.975701 C 16.839879 13.29849 16.744668 13.609668 16.619268 13.913879 C 16.493868 14.215768 16.340601 14.503724 16.157146 14.777746 C 15.976012 15.051768 15.767012 15.302568 15.53479 15.53479 C 15.302568 15.767013 15.051768 15.976013 14.777746 16.157146 C 14.503723 16.340602 14.215768 16.493868 13.913879 16.619268 C 13.609668 16.744668 13.29849 16.839879 12.975701 16.904902 C 12.652912 16.967602 12.327801 17.000113 12.000367 17.000113 C 11.670612 17.000113 11.345501 16.967602 11.025034 16.904902 C 10.702245 16.839879 10.388745 16.744668 10.086856 16.619268 C 9.782645 16.493868 9.494689 16.340602 9.222989 16.157146 C 8.948967 15.976013 8.695845 15.767013 8.463623 15.53479 C 8.2314 15.302568 8.024723 15.051768 7.843589 14.777746 C 7.660134 14.503724 7.506867 14.215768 7.381467 13.913879 C 7.256067 13.609668 7.160856 13.29849 7.095834 12.975701 C 7.033134 12.652912 7.000623 12.327801 7.000623 12.000368 C 7.000623 11.670612 7.033134 11.345501 7.095834 11.025034 C 7.160856 10.702245 7.256067 10.388745 7.381467 10.086856 C 7.506867 9.782645 7.660134 9.49469 7.843589 9.22299 C 8.024723 8.948967 8.2314 8.695845 8.463623 8.463623 C 8.695845 8.231401 8.948967 8.024723 9.222989 7.84359 C 9.494689 7.660134 9.782645 7.506867 10.086856 7.381467 C 10.388745 7.256067 10.702245 7.160856 11.025034 7.095834 C 11.345501 7.033134 11.670612 7.000623 12.000367 7.000623 C 12.327801 7.000623 12.652912 7.033134 12.975701 7.095834 C 13.29849 7.160856 13.609668 7.256067 13.913879 7.381467 C 14.215768 7.506867 14.503723 7.660134 14.777746 7.84359 C 15.051768 8.024723 15.302568 8.231401 15.53479 8.463623 C 15.767012 8.695845 15.976012 8.948967 16.157146 9.22299 C 16.340601 9.49469 16.493868 9.782645 16.619268 10.086856 C 16.744668 10.388745 16.839879 10.702245 16.904901 11.025034 C 16.967601 11.345501 17.000112 11.670612 17.000112 12.000368 Z M 17.000112 12.000368 " stroke="#000000" stroke-width="1" stroke-opacity="1" stroke-miterlimit="4"/><g clip-path="url(#fdd22ed653)"><path stroke-linecap="butt" transform="matrix(1.682117, 0, 0, 1.682117, -1.682117, -1.682117)" fill="none" stroke-linejoin="miter" d="M 16.500835 1.499278 L 7.4999 1.499278 C 4.186089 1.499278 1.499278 4.186089 1.499278 7.499901 L 1.499278 16.500835 C 1.499278 19.814646 4.186089 22.499135 7.4999 22.499135 L 16.500835 22.499135 C 19.814646 22.499135 22.499135 19.814646 22.499135 16.500835 L 22.499135 7.499901 C 22.499135 4.186089 19.814646 1.499278 16.500835 1.499278 Z M 16.500835 1.499278 " stroke="#000000" stroke-width="1" stroke-opacity="1" stroke-miterlimit="4"/></g></svg>